<svg width="26" height="26" viewBox="0 0 26 26" fill="none" xmlns="http://www.w3.org/2000/svg">
<path d="M15.925 6.82505C15.7265 7.02756 15.6153 7.29982 15.6153 7.58339C15.6153 7.86695 15.7265 8.13921 15.925 8.34172L17.6583 10.0751C17.8608 10.2735 18.1331 10.3847 18.4167 10.3847C18.7002 10.3847 18.9725 10.2735 19.175 10.0751L22.5398 6.7113C22.8865 6.36247 23.4748 6.47297 23.6048 6.94747C23.9321 8.13792 23.9136 9.39696 23.5514 10.5773C23.1893 11.7576 22.4985 12.8104 21.5598 13.6124C20.6212 14.4144 19.4736 14.9325 18.2512 15.1061C17.0288 15.2797 15.7823 15.1016 14.6575 14.5926L6.08834 23.1617C5.65736 23.5926 5.07289 23.8345 4.4635 23.8344C3.85411 23.8343 3.26972 23.5922 2.83888 23.1612C2.40805 22.7302 2.16607 22.1457 2.16617 21.5363C2.16627 20.9269 2.40845 20.3426 2.83942 19.9117L11.4086 11.3426C10.8996 10.2177 10.7214 8.97122 10.895 7.74886C11.0686 6.5265 11.5867 5.37886 12.3887 4.44022C13.1908 3.50158 14.2435 2.81077 15.4239 2.44863C16.6042 2.08649 17.8632 2.06799 19.0537 2.3953C19.5282 2.5253 19.6387 3.11247 19.2909 3.4613L15.925 6.82505Z" stroke="#68604D" stroke-width="2" stroke-linecap="round" stroke-linejoin="round"/>
</svg>
